<svg width="11440" height="1280" viewBox="0 0 11440 1280" fill="none" xmlns="http://www.w3.org/2000/svg">
<rect width="11440" height="1280" fill="#FAFAFC"/>
<rect width="1024" height="1280" rx="80" fill="white"/>
<path d="M312 840C312 784.772 356.772 740 412 740H512V840C512 895.228 467.228 940 412 940C356.772 940 312 895.228 312 840Z" fill="#24CB71"/>
<path d="M512 340V540H612C667.228 540 712 495.228 712 440C712 384.772 667.228 340 612 340H512Z" fill="#FF7237"/>
<path d="M611.167 740C666.395 740 711.167 695.228 711.167 640C711.167 584.772 666.395 540 611.167 540C555.939 540 511.167 584.772 511.167 640C511.167 695.228 555.939 740 611.167 740Z" fill="#00B6FF"/>
<path d="M312 440C312 495.228 356.772 540 412 540H512V340H412C356.772 340 312 384.772 312 440Z" fill="#FF3737"/>
<path d="M312 640C312 695.228 356.772 740 412 740H512V540H412C356.772 540 312 584.772 312 640Z" fill="#874FFF"/>
<rect x="1224" width="1024" height="1280" rx="80" fill="black"/>
<path d="M1536 840C1536 784.772 1580.77 740 1636 740H1736V840C1736 895.228 1691.23 940 1636 940C1580.77 940 1536 895.228 1536 840Z" fill="#24CB71"/>
<path d="M1736 340V540H1836C1891.23 540 1936 495.228 1936 440C1936 384.772 1891.23 340 1836 340H1736Z" fill="#FF7237"/>
<path d="M1835.17 740C1890.4 740 1935.17 695.228 1935.17 640C1935.17 584.772 1890.4 540 1835.17 540C1779.94 540 1735.17 584.772 1735.17 640C1735.17 695.228 1779.94 740 1835.17 740Z" fill="#00B6FF"/>
<path d="M1536 440C1536 495.228 1580.77 540 1636 540H1736V340H1636C1580.77 340 1536 384.772 1536 440Z" fill="#FF3737"/>
<path d="M1536 640C1536 695.228 1580.77 740 1636 740H1736V540H1636C1580.77 540 1536 584.772 1536 640Z" fill="#874FFF"/>
<rect x="3672" width="1024" height="1280" rx="80" fill="black"/>
<path fill-rule="evenodd" clip-rule="evenodd" d="M4026.97 546.036C3996.28 526.042 3976 491.426 3976 452.071C3976 390.176 4026.18 340 4088.07 340H4280.09C4341.98 340 4392.16 390.176 4392.16 452.071C4392.16 491.426 4371.87 526.042 4341.19 546.036C4371.87 566.03 4392.16 600.647 4392.16 640.001C4392.16 701.896 4341.98 752.072 4280.09 752.072H4278.04C4248.78 752.072 4222.14 740.86 4202.18 722.498V826.907C4202.18 889.494 4150.91 940 4088.58 940C4026.81 940 3976 889.951 3976 827.929C3976 788.575 3996.28 753.959 4026.97 733.965C3996.28 713.971 3976 679.355 3976 640.001C3976 600.647 3996.28 566.03 4026.97 546.036ZM4202.18 640.001C4202.18 681.896 4236.15 715.858 4278.04 715.858H4280.09C4321.98 715.858 4355.94 681.896 4355.94 640.001C4355.94 598.106 4321.98 564.144 4280.09 564.144H4278.04C4236.15 564.144 4202.18 598.106 4202.18 640.001ZM4165.97 564.144H4088.07C4046.18 564.144 4012.21 598.106 4012.21 640.001C4012.21 681.811 4046.04 715.72 4087.82 715.858H4087.93H4165.97V564.144ZM4088.07 752.072C4087.99 752.072 4087.9 752.072 4087.82 752.072C4046.04 752.209 4012.21 786.119 4012.21 827.929C4012.21 869.697 4046.56 903.786 4088.58 903.786C4131.17 903.786 4165.97 869.24 4165.97 826.907V752.072H4088.07ZM4165.97 527.928H4088.07C4046.18 527.928 4012.21 493.966 4012.21 452.071C4012.21 410.176 4046.18 376.214 4088.07 376.214H4165.97V527.928ZM4280.09 527.928H4202.18V376.214H4280.09C4321.98 376.214 4355.94 410.176 4355.94 452.071C4355.94 493.966 4321.98 527.928 4280.09 527.928Z" fill="white"/>
<rect x="2448" width="1024" height="1280" rx="80" fill="white"/>
<path d="M2960 640C2960 614.805 2970.01 590.641 2987.82 572.825C3005.64 555.009 3029.8 545 3055 545C3080.2 545 3104.36 555.009 3122.18 572.825C3139.99 590.641 3150 614.805 3150 640C3150 665.196 3139.99 689.359 3122.18 707.175C3104.36 724.991 3080.2 735 3055 735C3029.8 735 3005.64 724.991 2987.82 707.175C2970.01 689.359 2960 665.196 2960 640V640Z" stroke="black" stroke-width="35"/>
<path d="M2770 830C2770 804.804 2780.01 780.641 2797.82 762.825C2815.64 745.009 2839.8 735 2865 735H2960V830C2960 855.196 2949.99 879.359 2932.18 897.175C2914.36 914.991 2890.2 925 2865 925C2839.8 925 2815.64 914.991 2797.82 897.175C2780.01 879.359 2770 855.196 2770 830Z" stroke="black" stroke-width="35"/>
<path d="M2960 355V545H3055C3080.2 545 3104.36 534.991 3122.18 517.175C3139.99 499.359 3150 475.196 3150 450C3150 424.804 3139.99 400.641 3122.18 382.825C3104.36 365.009 3080.2 355 3055 355H2960Z" stroke="black" stroke-width="35"/>
<path d="M2770 450C2770 475.196 2780.01 499.359 2797.82 517.175C2815.64 534.991 2839.8 545 2865 545H2960V355H2865C2839.8 355 2815.64 365.009 2797.82 382.825C2780.01 400.641 2770 424.804 2770 450Z" stroke="black" stroke-width="35"/>
<path d="M2770 640C2770 665.196 2780.01 689.359 2797.82 707.175C2815.64 724.991 2839.8 735 2865 735H2960V545H2865C2839.8 545 2815.64 555.009 2797.82 572.825C2780.01 590.641 2770 614.805 2770 640Z" stroke="black" stroke-width="35"/>
<rect x="4896" width="2048" height="1280" rx="160" fill="white"/>
<path d="M5280 543.68C5280 498.57 5316.57 462 5361.68 462H5555.76C5600.87 462 5637.44 498.57 5637.44 543.68V737.76C5637.44 782.872 5600.87 819.442 5555.76 819.442H5361.68C5316.57 819.442 5280 782.872 5280 737.76V543.68Z" fill="black"/>
<path d="M5374.95 724.496C5374.95 701.362 5393.7 682.608 5416.83 682.608H5458.72V724.496C5458.72 747.63 5439.97 766.384 5416.83 766.384C5393.7 766.384 5374.95 747.63 5374.95 724.496Z" fill="#24CB71"/>
<path d="M5458.72 515.058V598.832H5500.61C5523.74 598.832 5542.5 580.08 5542.5 556.946C5542.5 533.812 5523.74 515.058 5500.61 515.058H5458.72Z" fill="#FF7237"/>
<path d="M5500.26 682.608C5523.39 682.608 5542.15 663.854 5542.15 640.72C5542.15 617.586 5523.39 598.832 5500.26 598.832C5477.13 598.832 5458.37 617.586 5458.37 640.72C5458.37 663.854 5477.13 682.608 5500.26 682.608Z" fill="#00B6FF"/>
<path d="M5374.95 556.946C5374.95 580.08 5393.7 598.834 5416.83 598.834H5458.72V515.058H5416.83C5393.7 515.058 5374.95 533.812 5374.95 556.946Z" fill="#FF3737"/>
<path d="M5374.95 640.72C5374.95 663.854 5393.7 682.608 5416.83 682.608H5458.72V598.834H5416.83C5393.7 598.834 5374.95 617.586 5374.95 640.72Z" fill="#874FFF"/>
<path d="M6480.77 763.97C6469.76 763.97 6459.87 761.84 6451.11 757.582C6442.57 753.324 6435.71 747.608 6430.54 740.436C6425.6 733.04 6423.13 724.522 6423.13 714.884C6423.13 702.334 6427.17 692.136 6435.26 684.29C6443.35 676.446 6454.93 671.068 6469.99 668.154L6509.43 660.084C6517.3 658.516 6522.69 656.05 6525.61 652.688C6528.53 649.326 6530 644.396 6530 637.896L6534.04 677.23L6477.4 689.334C6469.76 690.902 6463.81 693.704 6459.54 697.738C6455.49 701.774 6453.47 707.376 6453.47 714.548C6453.47 721.946 6456.28 727.884 6461.9 732.368C6467.74 736.85 6475.61 739.092 6485.49 739.092C6493.59 739.092 6501 737.298 6507.74 733.712C6514.71 730.126 6520.11 725.194 6523.93 718.92C6527.97 712.42 6530 705.024 6530 696.73V637.896C6530 629.826 6527.07 623.552 6521.23 619.068C6515.61 614.362 6507.86 612.008 6497.97 612.008C6485.38 612.008 6475.72 615.146 6468.98 621.422C6462.23 627.698 6458.3 636.55 6457.18 647.982L6427.51 643.948C6428.63 632.068 6432.23 621.87 6438.3 613.354C6444.36 604.612 6452.46 597.888 6462.57 593.182C6472.68 588.474 6484.71 586.122 6498.64 586.122C6518.42 586.122 6533.59 591.164 6544.15 601.25C6554.72 611.336 6560 624.336 6560 640.248V758.926H6530.67V737.074C6527.75 744.47 6521.79 750.858 6512.8 756.238C6504.04 761.392 6493.36 763.97 6480.77 763.97Z" fill="black"/>
<path d="M6184.09 758.926V591.164H6213.42V609.992C6215.66 603.492 6220.61 597.888 6228.25 593.182C6235.89 588.474 6244.77 586.122 6254.88 586.122C6264.77 586.122 6273.87 588.25 6282.19 592.508C6290.51 596.768 6295.9 603.156 6298.37 611.672C6301.29 603.828 6306.69 597.664 6314.55 593.182C6322.65 588.474 6331.64 586.122 6341.52 586.122C6358.61 586.122 6371.64 591.052 6380.63 600.914C6389.62 610.776 6394.12 625.12 6394.12 643.948V758.926H6364.11V647.982C6364.11 636.774 6361.64 628.37 6356.7 622.766C6351.98 616.94 6345.01 614.026 6335.79 614.026C6325.68 614.026 6317.81 617.612 6312.19 624.784C6306.8 631.732 6304.1 641.93 6304.1 655.378V758.926H6274.1V647.982C6274.1 636.774 6271.63 628.37 6266.68 622.766C6261.96 616.94 6254.99 614.026 6245.78 614.026C6235.67 614.026 6227.8 617.612 6222.18 624.784C6216.79 631.732 6214.09 641.93 6214.09 655.378V758.926H6184.09Z" fill="black"/>
<path d="M6069.36 819.442C6048.46 819.442 6031.49 814.624 6018.45 804.986C6005.41 795.348 5997.1 781.9 5993.5 764.642L6022.83 758.254C6025.31 769.236 6030.59 777.754 6038.68 783.806C6046.77 790.082 6057 793.22 6069.36 793.22C6084.19 793.22 6095.32 789.408 6102.73 781.788C6110.37 774.392 6114.2 763.298 6114.2 748.504V721.946C6110.82 730.238 6104.53 736.962 6095.32 742.116C6086.33 747.272 6076.21 749.85 6064.97 749.85C6050.14 749.85 6037.11 746.488 6025.87 739.764C6014.63 732.816 6005.86 723.178 5999.57 710.85C5993.28 698.524 5990.13 684.29 5990.13 668.154C5990.13 651.792 5993.28 637.448 5999.57 625.12C6005.86 612.792 6014.52 603.268 6025.53 596.544C6036.77 589.596 6049.92 586.122 6064.97 586.122C6076.21 586.122 6086.44 588.698 6095.65 593.854C6105.09 598.784 6111.5 604.948 6114.87 612.344V591.164H6144.2V748.504C6144.2 763.298 6141.28 775.96 6135.43 786.496C6129.59 797.254 6121.05 805.434 6109.81 811.038C6098.8 816.64 6085.31 819.442 6069.36 819.442ZM6068.68 723.29C6083.07 723.29 6094.53 718.246 6103.07 708.16C6111.84 698.074 6116.22 684.74 6116.22 668.154C6116.22 651.344 6111.84 637.896 6103.07 627.81C6094.3 617.724 6082.84 612.68 6068.68 612.68C6054.3 612.68 6042.72 617.724 6033.96 627.81C6025.42 637.896 6021.15 651.344 6021.15 668.154C6021.15 684.74 6025.53 698.074 6034.3 708.16C6043.06 718.246 6054.52 723.29 6068.68 723.29Z" fill="black"/>
<path d="M5929.58 758.73V591.164H5959.59V758.926L5929.58 758.73ZM5929.24 569.648V521.908H5959.92V569.648H5929.24Z" fill="black"/>
<path d="M5757.25 758.926V521.908H5788.94V758.926H5757.25ZM5763.66 658.74V630.162H5892.78V658.74H5763.66ZM5763.66 550.82V521.908H5905.25V550.82H5763.66Z" fill="black"/>
<rect x="7144" width="2048" height="1280" rx="160" fill="white"/>
<path d="M8649.57 778.854C8633.11 778.854 8618.32 775.662 8605.22 769.28C8592.45 762.896 8582.21 754.328 8574.48 743.576C8567.09 732.49 8563.39 719.722 8563.39 705.276C8563.39 686.46 8569.44 671.174 8581.53 659.414C8593.63 647.656 8610.93 639.592 8633.44 635.224L8692.41 623.13C8704.16 620.778 8712.23 617.082 8716.6 612.042C8720.96 607.002 8723.15 599.612 8723.15 589.868L8729.19 648.832L8644.53 666.974C8633.11 669.326 8624.2 673.526 8617.82 679.574C8611.77 685.622 8608.75 694.02 8608.75 704.772C8608.75 715.858 8612.95 724.762 8621.35 731.482C8630.08 738.202 8641.84 741.562 8656.62 741.562C8668.72 741.562 8679.81 738.874 8689.89 733.498C8700.3 728.122 8708.36 720.73 8714.08 711.324C8720.12 701.58 8723.15 690.492 8723.15 678.062V589.868C8723.15 577.772 8718.78 568.366 8710.04 561.646C8701.64 554.59 8690.05 551.062 8675.27 551.062C8656.46 551.062 8642.01 555.766 8631.93 565.174C8621.85 574.58 8615.97 587.852 8614.29 604.986L8569.94 598.94C8571.62 581.132 8577 565.846 8586.07 553.078C8595.14 539.976 8607.24 529.896 8622.35 522.84C8637.47 515.786 8655.45 512.258 8676.28 512.258C8705.84 512.258 8728.52 519.816 8744.31 534.936C8760.1 550.054 8768 569.542 8768 593.396V771.294H8724.16V738.538C8719.79 749.624 8710.88 759.2 8697.45 767.264C8684.34 774.99 8668.38 778.854 8649.57 778.854Z" fill="black"/>
<path d="M8206.06 771.294V519.816H8249.9V548.038C8253.26 538.296 8260.65 529.896 8272.08 522.84C8283.5 515.786 8296.77 512.258 8311.89 512.258C8326.67 512.258 8340.28 515.45 8352.71 521.832C8365.14 528.216 8373.2 537.792 8376.9 550.558C8381.27 538.8 8389.33 529.56 8401.09 522.84C8413.19 515.786 8426.62 512.258 8441.41 512.258C8466.94 512.258 8486.43 519.648 8499.87 534.432C8513.31 549.214 8520.03 570.718 8520.03 598.94V771.294H8475.17V604.986C8475.17 588.188 8471.48 575.588 8464.09 567.19C8457.03 558.454 8446.62 554.086 8432.84 554.086C8417.72 554.086 8405.96 559.462 8397.56 570.214C8389.5 580.628 8385.47 595.916 8385.47 616.074V771.294H8340.61V604.986C8340.61 588.188 8336.92 575.588 8329.53 567.19C8322.47 558.454 8312.06 554.086 8298.28 554.086C8283.16 554.086 8271.4 559.462 8263 570.214C8254.94 580.628 8250.91 595.916 8250.91 616.074V771.294H8206.06Z" fill="black"/>
<path d="M8034.55 862.008C8003.31 862.008 7977.94 854.786 7958.45 840.338C7938.97 825.892 7926.54 805.732 7921.16 779.862L7965.01 770.288C7968.7 786.75 7976.6 799.516 7988.69 808.588C8000.79 817.996 8016.07 822.7 8034.55 822.7C8056.73 822.7 8073.36 816.988 8084.45 805.564C8095.87 794.478 8101.58 777.846 8101.58 755.672V715.858C8096.54 728.29 8087.13 738.37 8073.36 746.096C8059.92 753.824 8044.8 757.688 8028 757.688C8005.83 757.688 7986.34 752.648 7969.54 742.568C7952.74 732.154 7939.64 717.706 7930.23 699.228C7920.83 680.75 7916.12 659.414 7916.12 635.224C7916.12 610.698 7920.83 589.196 7930.23 570.718C7939.64 552.238 7952.57 537.96 7969.04 527.88C7985.84 517.464 8005.49 512.258 8028 512.258C8044.8 512.258 8060.09 516.122 8073.86 523.848C8087.97 531.24 8097.55 540.48 8102.59 551.566V519.816H8146.43V755.672C8146.43 777.846 8142.07 796.83 8133.33 812.62C8124.59 828.746 8111.83 841.01 8095.03 849.41C8078.57 857.808 8058.41 862.008 8034.55 862.008ZM8033.55 717.874C8055.05 717.874 8072.18 710.316 8084.95 695.196C8098.05 680.078 8104.6 660.086 8104.6 635.224C8104.6 610.026 8098.05 589.868 8084.95 574.748C8071.85 559.63 8054.71 552.07 8033.55 552.07C8012.04 552.07 7994.74 559.63 7981.64 574.748C7968.87 589.868 7962.49 610.026 7962.49 635.224C7962.49 660.086 7969.04 680.078 7982.14 695.196C7995.24 710.316 8012.38 717.874 8033.55 717.874Z" fill="black"/>
<path d="M7825.61 771.294V519.816H7870.46V771.294H7825.61ZM7825.1 487.562V416H7870.96V487.562H7825.1Z" fill="black"/>
<path d="M7568 771.294V416H7615.37V771.294H7568ZM7577.58 621.114V578.276H7770.59V621.114H7577.58ZM7577.58 459.34V416H7789.24V459.34H7577.58Z" fill="black"/>
<rect x="9392" width="2048" height="1280" rx="160" fill="black"/>
<path d="M10897.6 778.854C10881.1 778.854 10866.3 775.662 10853.2 769.28C10840.5 762.896 10830.2 754.328 10822.5 743.576C10815.1 732.49 10811.4 719.722 10811.4 705.276C10811.4 686.46 10817.4 671.174 10829.5 659.414C10841.6 647.656 10858.9 639.592 10881.4 635.224L10940.4 623.13C10952.2 620.778 10960.2 617.082 10964.6 612.042C10969 607.002 10971.1 599.612 10971.1 589.868L10977.2 648.832L10892.5 666.974C10881.1 669.326 10872.2 673.526 10865.8 679.574C10859.8 685.622 10856.7 694.02 10856.7 704.772C10856.7 715.858 10860.9 724.762 10869.3 731.482C10878.1 738.202 10889.8 741.562 10904.6 741.562C10916.7 741.562 10927.8 738.874 10937.9 733.498C10948.3 728.122 10956.4 720.73 10962.1 711.324C10968.1 701.58 10971.1 690.492 10971.1 678.062V589.868C10971.1 577.772 10966.8 568.366 10958 561.646C10949.6 554.59 10938.1 551.062 10923.3 551.062C10904.5 551.062 10890 555.766 10879.9 565.174C10869.8 574.58 10864 587.852 10862.3 604.986L10817.9 598.94C10819.6 581.132 10825 565.846 10834.1 553.078C10843.1 539.976 10855.2 529.896 10870.4 522.84C10885.5 515.786 10903.4 512.258 10924.3 512.258C10953.8 512.258 10976.5 519.816 10992.3 534.936C11008.1 550.054 11016 569.542 11016 593.396V771.294H10972.2V738.538C10967.8 749.624 10958.9 759.2 10945.4 767.264C10932.3 774.99 10916.4 778.854 10897.6 778.854Z" fill="white"/>
<path d="M10454.1 771.294V519.816H10497.9V548.038C10501.3 538.296 10508.7 529.896 10520.1 522.84C10531.5 515.786 10544.8 512.258 10559.9 512.258C10574.7 512.258 10588.3 515.45 10600.7 521.832C10613.1 528.216 10621.2 537.792 10624.9 550.558C10629.3 538.8 10637.3 529.56 10649.1 522.84C10661.2 515.786 10674.6 512.258 10689.4 512.258C10714.9 512.258 10734.4 519.648 10747.9 534.432C10761.3 549.214 10768 570.718 10768 598.94V771.294H10723.2V604.986C10723.2 588.188 10719.5 575.588 10712.1 567.19C10705 558.454 10694.6 554.086 10680.8 554.086C10665.7 554.086 10654 559.462 10645.6 570.214C10637.5 580.628 10633.5 595.916 10633.5 616.074V771.294H10588.6V604.986C10588.6 588.188 10584.9 575.588 10577.5 567.19C10570.5 558.454 10560.1 554.086 10546.3 554.086C10531.2 554.086 10519.4 559.462 10511 570.214C10502.9 580.628 10498.9 595.916 10498.9 616.074V771.294H10454.1Z" fill="white"/>
<path d="M10282.6 862.008C10251.3 862.008 10225.9 854.786 10206.5 840.338C10187 825.892 10174.5 805.732 10169.2 779.862L10213 770.288C10216.7 786.75 10224.6 799.516 10236.7 808.588C10248.8 817.996 10264.1 822.7 10282.6 822.7C10304.7 822.7 10321.4 816.988 10332.4 805.564C10343.9 794.478 10349.6 777.846 10349.6 755.672V715.858C10344.5 728.29 10335.1 738.37 10321.4 746.096C10307.9 753.824 10292.8 757.688 10276 757.688C10253.8 757.688 10234.3 752.648 10217.5 742.568C10200.7 732.154 10187.6 717.706 10178.2 699.228C10168.8 680.75 10164.1 659.414 10164.1 635.224C10164.1 610.698 10168.8 589.196 10178.2 570.718C10187.6 552.238 10200.6 537.96 10217 527.88C10233.8 517.464 10253.5 512.258 10276 512.258C10292.8 512.258 10308.1 516.122 10321.9 523.848C10336 531.24 10345.5 540.48 10350.6 551.566V519.816H10394.4V755.672C10394.4 777.846 10390.1 796.83 10381.3 812.62C10372.6 828.746 10359.8 841.01 10343 849.41C10326.6 857.808 10306.4 862.008 10282.6 862.008ZM10281.5 717.874C10303 717.874 10320.2 710.316 10333 695.196C10346.1 680.078 10352.6 660.086 10352.6 635.224C10352.6 610.026 10346.1 589.868 10333 574.748C10319.8 559.63 10302.7 552.07 10281.5 552.07C10260 552.07 10242.7 559.63 10229.6 574.748C10216.9 589.868 10210.5 610.026 10210.5 635.224C10210.5 660.086 10217 680.078 10230.1 695.196C10243.2 710.316 10260.4 717.874 10281.5 717.874Z" fill="white"/>
<path d="M10073.6 771.294V519.816H10118.5V771.294H10073.6ZM10073.1 487.562V416H10119V487.562H10073.1Z" fill="white"/>
<path d="M9816 771.294V416H9863.37V771.294H9816ZM9825.58 621.114V578.276H10018.6V621.114H9825.58ZM9825.58 459.34V416H10037.2V459.34H9825.58Z" fill="white"/>
</svg>
